<svg width="50" height="50" viewBox="0 0 50 50" fill="none" xmlns="http://www.w3.org/2000/svg">
<path fill-rule="evenodd" clip-rule="evenodd" d="M25 4.16667C21.5481 4.16667 18.75 6.9649 18.75 10.4167H31.25C31.25 6.9649 28.4517 4.16667 25 4.16667ZM31.25 14.5833V16.6667C31.25 17.8172 32.1827 18.75 33.3333 18.75C34.4838 18.75 35.4167 17.8172 35.4167 16.6667V14.5833H37.9615C39.0179 14.5833 39.9071 15.3741 40.0304 16.4233L43.2167 43.5067C43.3625 44.7452 42.3948 45.8333 41.1477 45.8333H8.8522C7.60514 45.8333 6.63743 44.7452 6.78314 43.5067L9.96941 16.4233C10.0928 15.3741 10.9821 14.5833 12.0385 14.5833H14.5833V16.6667C14.5833 17.8172 15.516 18.75 16.6666 18.75C17.8172 18.75 18.75 17.8172 18.75 16.6667V14.5833H31.25ZM14.5833 10.4167H12.0385C8.8692 10.4167 6.20159 12.7888 5.83128 15.9364L2.64501 43.0198C2.20789 46.7354 5.11099 50 8.8522 50H41.1477C44.889 50 47.7921 46.7354 47.3548 43.0198L44.1686 15.9364C43.7983 12.7888 41.1306 10.4167 37.9615 10.4167H35.4167C35.4167 4.66371 30.7529 0 25 0C19.247 0 14.5833 4.66371 14.5833 10.4167Z" fill="white"/>
</svg>
