<svg width="30" height="30" viewBox="0 0 30 30" fill="none" xmlns="http://www.w3.org/2000/svg">
<path d="M17.8125 2.8125C12.6453 2.8125 8.4375 7.02026 8.4375 12.1875C8.4375 14.4324 9.22485 16.4905 10.5469 18.1055L3.07617 25.5762L4.42383 26.9238L11.8945 19.4531C13.5095 20.7751 15.5676 21.5625 17.8125 21.5625C22.9797 21.5625 27.1875 17.3547 27.1875 12.1875C27.1875 7.02026 22.9797 2.8125 17.8125 2.8125ZM17.8125 4.6875C21.9653 4.6875 25.3125 8.03467 25.3125 12.1875C25.3125 16.3403 21.9653 19.6875 17.8125 19.6875C13.6597 19.6875 10.3125 16.3403 10.3125 12.1875C10.3125 8.03467 13.6597 4.6875 17.8125 4.6875Z" fill="black" fill-opacity="0.6"/>
</svg>
